
<svg version="1.0" xmlns="http://www.w3.org/2000/svg"
 width="248.000000pt" height="76.000000pt" viewBox="0 0 248.000000 76.000000"
 preserveAspectRatio="xMidYMid meet">

<g transform="translate(0.000000,76.000000) scale(0.100000,-0.100000)"
fill="#000000" stroke="none">
<path d="M768 616 c-98 -50 -178 -93 -178 -96 0 -6 181 -63 185 -58 1 2 43 58
94 126 50 67 88 121 84 121 -4 -1 -88 -43 -185 -93z"/>
<path d="M56 669 c125 -162 228 -289 235 -289 16 0 269 130 269 138 0 4 -109
40 -243 81 -133 41 -249 77 -257 79 -12 5 -13 3 -4 -9z"/>
<path d="M657 302 c-59 -81 -117 -160 -130 -176 l-23 -29 -103 132 c-56 72
-105 131 -107 131 -2 0 -4 -65 -4 -145 l0 -145 98 0 c57 0 103 5 109 11 8 8
13 8 17 0 5 -7 53 -11 132 -11 l124 0 0 190 c0 105 -1 190 -2 190 -2 -1 -51
-67 -111 -148z"/>
<path d="M1136 443 c-12 -12 -6 -33 9 -33 8 0 15 6 15 14 0 17 -14 28 -24 19z"/>
<path d="M1203 435 c-7 -20 2 -29 21 -22 9 4 13 13 10 22 -8 19 -23 19 -31 0z"/>
<path d="M900 383 c0 -5 14 -72 31 -150 26 -115 36 -143 49 -143 14 0 23 24
44 113 39 165 42 187 24 187 -11 0 -21 -28 -37 -100 -11 -56 -21 -110 -21
-122 0 -41 -11 -10 -31 83 -28 138 -28 139 -44 139 -8 0 -15 -3 -15 -7z"/>
<path d="M1166 382 c-7 -11 -66 -261 -66 -278 0 -8 6 -14 14 -14 9 0 18 16 23
42 8 40 11 43 45 46 35 3 36 3 42 -42 5 -32 12 -46 23 -46 19 0 15 27 -23 191
-17 73 -30 109 -39 109 -8 0 -16 -4 -19 -8z m39 -149 c5 -20 1 -23 -26 -23
-23 0 -30 4 -26 14 3 8 9 32 13 53 10 57 17 62 26 18 4 -22 10 -50 13 -62z"/>
<path d="M1346 369 c-42 -33 -36 -78 19 -130 66 -63 58 -128 -15 -117 -24 4
-30 1 -28 -11 4 -20 54 -27 84 -10 29 15 48 60 39 91 -4 13 -27 42 -51 64 -24
23 -44 51 -44 62 0 27 25 45 54 40 28 -6 44 17 20 26 -28 11 -51 6 -78 -15z"/>
<path d="M1500 375 c0 -9 9 -15 25 -15 l25 0 0 -136 c0 -124 2 -135 18 -132
15 3 17 18 18 123 1 66 2 126 3 133 1 6 12 12 26 12 16 0 25 6 25 15 0 12 -14
15 -70 15 -56 0 -70 -3 -70 -15z"/>
<path d="M1707 383 c-4 -3 -7 -71 -7 -150 l0 -143 60 0 c47 0 60 3 60 15 0 11
-12 15 -45 15 l-45 0 0 135 c0 123 -4 147 -23 128z"/>
<path d="M1930 274 c0 -122 -8 -154 -40 -154 -11 0 -20 -7 -20 -15 0 -22 46
-19 70 5 18 18 20 33 20 150 0 109 -2 130 -15 130 -12 0 -15 -20 -15 -116z"/>
<path d="M2040 266 c0 -110 2 -126 21 -150 40 -51 111 -25 124 46 3 18 5 76 3
128 -2 76 -6 95 -18 95 -12 0 -15 -20 -17 -110 -4 -142 -7 -155 -38 -155 -36
0 -45 32 -45 161 0 90 -3 109 -15 109 -13 0 -15 -20 -15 -124z"/>
<path d="M2293 378 c-28 -14 -45 -61 -33 -92 5 -13 25 -36 45 -51 40 -31 52
-63 35 -95 -9 -17 -19 -21 -45 -19 -39 4 -57 -8 -35 -21 25 -16 66 -11 94 11
20 16 26 29 26 60 0 33 -7 45 -45 81 -47 44 -57 76 -30 98 8 7 26 10 40 7 20
-3 25 -1 23 12 -4 19 -44 24 -75 9z"/>
</g>
</svg>
